<svg xmlns="http://www.w3.org/2000/svg" version="1.1" xmlns:xlink="http://www.w3.org/1999/xlink" width="512" height="512" x="0" y="0" viewBox="0 0 1707 1707" style="enable-background:new 0 0 512 512" xml:space="preserve" fill-rule="evenodd" class=""><g><path fill="#eaeaea" d="M1423 1690H284c-157 0-284-127-284-284V300C0 144 127 17 284 17h1139c156 0 283 127 283 283v1106c0 157-127 284-283 284z" opacity="1" data-original="#eaeaea" class=""></path><path fill="#9a9a9a" d="M1706 837v569c0 87-38 164-100 216L855 935c-20 6-35-19-19-34l303-280c95-88 244-83 347 12z" opacity="1" data-original="#9a9a9a" class=""></path><g fill="#bbbcbc"><path d="M636 548c-70 0-128-58-128-129 0-70 58-128 128-128 71 0 128 58 128 128 0 71-57 129-128 129zM636 265c-28 0-20-42-20-81 0-27 40-27 40 0 0 39 8 81-20 81zM723 288c-15 0-25-16-17-30 19-34 34-74 58-60s-4 47-23 80c-4 7-11 10-18 10zM787 352c-20 0-28-27-10-37 34-20 67-48 81-23 16 28-65 60-71 60zM872 439c-40 0-81 9-81-20 0-28 41-20 81-20 26 0 26 40 0 40zM840 557c-10 0-49-25-63-33-22-13-2-48 20-35 34 20 75 34 61 58-4 7-11 10-18 10zM754 644c-18 0-31-35-48-63-13-23 21-43 35-20 12 21 58 83 13 83zM636 675c-28 0-20-41-20-81 0-26 40-26 40 0 0 39 8 81-20 81zM518 644c-15 0-25-17-17-30 19-34 34-75 58-61s-4 47-23 81c-4 6-11 10-18 10zM432 557c-20 0-28-27-10-37 34-20 66-47 80-23 15 24-26 38-60 58-3 1-7 2-10 2zM462 439c-40 0-82 9-82-20 0-28 42-20 82-20 26 0 26 40 0 40zM485 352c-10 0-50-25-63-33-23-13-3-48 20-35 34 20 74 34 60 58-3 7-10 10-17 10zM549 288c-18 0-32-34-48-63-13-22 21-43 35-20 12 21 58 83 13 83z" fill="#bbbcbc" opacity="1" data-original="#bbbcbc"></path></g><path fill="#7f8080" d="M1423 1690H284c-157 0-284-127-284-284v-182l439-406c95-88 244-83 347 12l838 776c-51 52-122 84-201 84z" opacity="1" data-original="#7f8080"></path></g></svg>